<svg xmlns="http://www.w3.org/2000/svg" width="48" height="48"><path d="M39.287 17.643c-.178.112-4.414 2.463-4.414 7.676.2 5.946 5.346 8.03 5.434 8.03-.088.112-.777 2.841-2.817 5.702C35.871 41.516 34.074 44 31.345 44c-2.596 0-3.527-1.642-6.523-1.642-3.216 0-4.126 1.642-6.59 1.642-2.728 0-4.659-2.617-6.366-5.059-2.218-3.195-4.104-8.209-4.17-13.022-.045-2.551.444-5.059 1.685-7.189 1.752-2.973 4.88-4.991 8.297-5.058 2.618-.089 4.947 1.797 6.545 1.797 1.531 0 4.393-1.797 7.631-1.797 1.398.001 5.126.422 7.433 3.971zm-15.285-4.48c-.466-2.33.82-4.66 2.018-6.146C27.551 5.22 29.97 4 32.054 4a8.688 8.688 0 0 1-2.218 6.279c-1.353 1.797-3.683 3.15-5.834 2.883z" style="stroke-width:.689655;fill:#f2f2f2"/></svg>