<svg height="306" viewBox="0 0 400 300" width="406" xmlns="http://www.w3.org/2000/svg"><path d="m92.86 224.39v-180.31h-24.04v205.33z" fill="none" transform="matrix(-1.3404289 0 0 1.3404289 468.08474 -51.063938)"/><path d="m375.83655 283.92204a-.77744737.77744737 0 0 0 .25469 0-.67021346.67021346 0 0 0 .4155-.61652v-275.283485a-.67021346.67021346 0 0 0 -.67019-.67017h-32.17028a-.65680924.65680924 0 0 0 -.65678.67017v241.692235a-.69702204.69702204 0 0 0 .18761.46921l32.17031 33.51097a-.68361773.68361773 0 0 0 .46914.22759zm-.65681-275.229744v272.910974l-30.82982-32.17016v-240.740814z" fill="none" stroke-width="1.34034"/><g stroke-width="1.66662"><path d="m364.13786 148.45774c3.51707.63309 28.63573.21641 28.13571 5.21722-.49996 4.99992-12.73444 55.00425-16.20128 68.42186-3.46697 13.41803-12.88439 25.00237-21.80219 30.00236-8.91701 5.00056-36.00256-16.76756-42.03616-18.3348-6.03439-1.56673 51.90392-85.30664 51.90392-85.30664z" fill="#231f20"/><path d="m351.03721 253.64938a7.3339385 7.3339385 0 0 0 3.65009-.83331c8.33383-4.70046 18.33466-15.95113 22.20159-30.5195 3.51714-13.58421 15.71806-63.43853 16.21808-68.53867a2.3668657 2.3668657 0 0 0 -.60003-1.80018c-2.45014-2.83355-12.66779-3.5171-22.90184-3.96712-2.45024-.12115-4.55041-.21652-5.33384-.3498a.83340218.83340218 0 0 0 -.81665.3498c-9.15064 13.33482-54.68751 79.65654-52.37068 85.79087a1.3834476 1.3834476 0 0 0 .94991.85002c1.78313.43334 5.85037 2.98306 10.56775 5.91715 9.08329 5.66701 21.00118 13.10074 28.43562 13.10074zm13.48416-104.2916c1.03331.12115 2.76688.20016 5.0004.28308 6.81722.31673 19.51816.88379 21.6684 3.33394a.71672575.71672575 0 0 1 .21675.54957c-.50016 4.9176-12.76784 55.13782-16.18474 68.33909-3.65019 14.08437-13.33446 25.00221-21.40211 29.48607-5.66715 3.18301-20.53498-6.08444-30.38511-12.23446a63.638596 63.638596 0 0 0 -10.86821-6.06754c-.79973-4.95034 31.18629-53.58757 51.95462-83.68975z" fill="#231f20"/><path d="m270.04658 117.72163s116.92659-4.75035 117.42666 3.58392c.50002 8.33338-57.78849 131.19396-66.3054 132.99407-8.51768 1.80012-9.40082-6.30038-12.66759-5.48406-3.26745.81699-36.23648-9.33419-46.6708-18.33479-10.4343-9.0006 17.56814-77.03956 16.35141-85.47358-1.21669-8.43401-17.73447-26.08527-8.13428-27.28556z" fill="#fff"/><path d="m318.85098 255.41654a11.350938 11.350938 0 0 0 2.48315-.28361c5.7508-1.1999 27.86917-45.47006 37.11975-64.45499 14.66817-30.11912 30.11941-64.68905 29.85273-69.37239-.1174-1.81724-.35011-6.0677-59.73812-5.75108-28.9693.13349-58.33854 1.33375-58.55495 1.35011a3.9336599 3.9336599 0 0 0 -3.33332 2.00022c-1.51732 3.05087 1.76632 8.66764 5.23321 14.61819 2.51693 4.28362 5.10057 8.73368 5.53377 11.66765.41704 2.75032-2.7999 13.21738-6.51653 25.31842-7.45135 24.28589-16.66813 54.50458-9.53441 60.65527 10.50108 9.00093 43.78652 19.33487 47.37084 18.41789.73288-.16618 1.38291.50036 2.48317 1.66707a9.7674728 9.7674728 0 0 0 7.60071 4.16725zm13.33471-138.34502c34.68587 0 54.23738 1.75018 54.3875 4.25034.23332 3.75006-13.10118 34.51937-29.68559 68.57258-20.91847 43.08641-33.12004 63.08828-35.88692 63.62154-4.76695 1.00037-6.80024-1.26638-8.58354-3.33334-1.2336-1.36708-2.3836-2.63342-4.13397-2.20046-2.79966.68361-35.45288-9.15097-45.87037-18.08488-6.35012-5.43331 3.51681-37.60278 10.00126-58.88796 3.93299-12.81763 7.03335-22.93489 6.5833-26.06886-.45002-3.13383-3.16693-7.9009-5.74987-12.33457-2.95082-5.00001-6.30096-10.78361-5.18424-13.03377a2.400201 2.400201 0 0 1 2.01701-1.08383c24.10168-.91645 44.98729-1.35014 62.17214-1.35014z" fill="#231f20"/><path d="m57.195721 227.71387s-17.834808-.49971-20.151678-1.6667c-2.316868-1.16691-15.684456-18.50141-18.817925-22.63487-3.133526-4.13403-3.966879-8.91769-6.117267-9.90076-2.1503212-.98368-3.4668112-2.65033-4.2834642 0-.8170337 2.64979 3.6334062 21.66825 6.6670592 32.03589 3.033742 10.3676 6.433845 24.28509 8.917259 25.93551 2.483768 1.64972 9.084067-.50028 10.90104-2.31689a36.869714 36.869714 0 0 1 6.667013-4.30054s21.318362.16665 21.668946-.31671c.349354-.48344-5.450984-16.83493-5.450983-16.83493z" fill="#fff"/><path d="m25.876637 252.98272a15.43456 15.43456 0 0 0 8.950856-3.1502 34.619548 34.619548 0 0 1 6.216973-4.05068c21.5519.16731 21.818122-.23292 22.135216-.69996.31683-.46653.550311-.83337-5.200602-17.56815a.80006616.80006616 0 0 0 -.749596-.56652c-6.834165-.18307-18.235142-.78358-19.801578-1.56672-1.566934-.78327-11.867877-13.60082-18.534926-22.38546a27.835623 27.835623 0 0 1 -3.117165-5.51688c-1.050227-2.21687-1.883572-3.98351-3.333394-4.65064a9.5007809 9.5007809 0 0 1 -1.233624-.66611c-.966774-.5506-1.8668402-1.06736-2.7836402-.71674a2.7835623 2.7835623 0 0 0 -1.4168037 1.89958c-.999777 3.20061 4.2504209 24.26879 6.6675709 32.51986.483056 1.66662.983047 3.48368 1.483382 5.28382 3.333641 11.81723 5.600515 19.65098 7.767255 21.10168a5.4504483 5.4504483 0 0 0 2.950076.73312zm15.001393-8.85063a.90007438.90007438 0 0 0 -.366612 0 36.803022 36.803022 0 0 0 -6.817184 4.45055c-1.667246 1.66673-7.834342 3.55028-9.850886 2.20019-2.017003-1.35021-4.86734-12.16763-7.100756-20.16866-.499908-1.80012-.999826-3.6002-1.483514-5.30044-3.466824-12.13425-7.2839482-29.43547-6.6669192-31.56926.233061-.73334.433198-.83332.433198-.83332s.933174.36638 1.3500992.61667c.416429.25015.866456.50039 1.366917.73343.900072.40036 1.66682 2.0003 2.500167 3.8501a31.185874 31.185874 0 0 0 3.333395 5.80065c.667017.88316 16.351504 21.48499 19.118401 22.86885 2.250135 1.11624 16.484798 1.66683 20.001319 1.66683 1.783647 5.21704 4.366847 13.00112 5.000617 15.35081-2.849888.21715-13.767907.23355-20.684825.18323z" fill="#231f20"/><path d="m250.37843 252.83304s-90.74105-11.51758-97.20765-12.06825c-6.46774-.54948-98.542022 6.43384-101.875408 5.934-3.333343-.49965-4.216653-21.3018-4.216653-21.3018s89.123831-24.00199 114.392751-22.78532c14.61794.70037 62.00472 0 62.00472 0z" fill="#231f20"/><path d="m250.37843 253.66639a.81673428.81673428 0 0 0 .73388-1.2167l-26.85267-50.23782a.83340218.83340218 0 0 0 -.74962-.43355c-.46702 0-47.52124.68369-61.93913 0-25.11806-1.1996-111.008824 21.83564-114.659221 22.8189a.81673428.81673428 0 0 0 -.616441.83336c.299753 6.46698 1.399939 21.55194 4.916714 22.10158 1.533572.23356 18.1351-.86644 45.103875-2.6504 25.002283-1.66671 53.337723-3.5499 56.788203-3.33342 6.33358.48374 96.25786 11.95112 97.17489 12.06784zm-27.40216-50.22134 25.852 48.33749c-12.55112-1.66663-89.65723-11.41743-95.65749-11.86749-3.48389-.26652-30.70281 1.53375-57.02168 3.33391-21.268263 1.41678-43.253715 2.88344-44.737215 2.66627-1.483377-.21616-2.916348-9.41704-3.466845-19.85105 8.13444-2.16723 89.77424-23.73529 113.49268-22.5852 13.70115.61621 56.42132.0378 61.53855-.0378z" fill="#231f20"/><path d="m125.35123 219.86322s-8.91679 14.36827-9.90061 17.35159c-.98357 2.98345-.99994 11.1507-2.96708 14.86787-1.96622 3.71719-58.221128 2.98352-57.988041.76682.233867-2.21684 24.285646-12.16764 30.603035-16.66809 6.316937-4.50041 22.867966-28.20207 22.867966-28.20207z" fill="#fff"/><path d="m83.831421 255.4665c14.084618 0 28.185589-.75018 29.369059-2.98401 1.18391-2.23312 1.76698-6.36714 2.18341-9.8672a32.102657 32.102657 0 0 1 .85043-5.15038c.76661-2.2667 6.76732-12.21779 9.83388-17.1682a.81673428.81673428 0 0 0 -.23292-1.11641l-17.35209-11.88465a.83340218.83340218 0 0 0 -1.15016.19966c-.16608.23401-16.584252 23.71929-22.718565 28.05271a146.84561 146.84561 0 0 1 -15.31799 8.03399c-11.950607 5.80046-15.450944 7.70086-15.617528 9.16733q-.09645.90004 1.199906 1.3004c2.417266.74964 15.668339 1.41676 28.952568 1.41676zm40.403479-35.36978c-1.80029 2.9167-8.68417 14.16749-9.56798 16.85162a33.036078 33.036078 0 0 0 -.93265 5.46707 30.902533 30.902533 0 0 1 -1.98375 9.28394c-.90004.98327-10.11734 2.11677-28.169488 2.16713-13.850696.0856-25.001466-.61728-27.884975-1.30021a139.76158 139.76158 0 0 1 14.317253-7.48439 148.34606 148.34606 0 0 0 15.56793-8.1838c5.834231-4.11698 19.83534-23.78533 22.63552-27.76884z" fill="#231f20"/><path d="m286.56525 241.31546c-1.50053.99951-8.05084 10.60057-36.18682 11.58425-28.13578.98307-74.47274-84.17364-74.47274-84.17364l-48.90388 57.40477-22.45204-14.20154s30.71916-85.37392 44.587-94.14099c13.86786-8.76698 36.67013-2.31683 46.67032 4.11701 10.00144 6.43384 57.97147 72.339 57.97147 72.339z" fill="#231f20"/><path d="m249.89511 253.68289h.51659c25.23533-.88374 33.33591-8.61752 35.98631-11.15072.28367-.26692.48382-.4671.61726-.56678a.81673428.81673428 0 0 0 .36635-.53345.91674249.91674249 0 0 0 -.13336-.63323l-32.86933-47.07115c-1.98322-2.71654-48.33758-66.12166-58.20491-72.57261-9.28376-6.03344-32.73632-13.43408-47.47089-4.11699-13.96773 8.81747-43.68696 91.05774-45.00302 94.55814a.83340218.83340218 0 0 0 .33303.98296l22.46818 14.20179a.85007008.85007008 0 0 0 1.08366-.16717l48.10426-56.47082a477.18941 477.18941 0 0 0 26.1518 41.48634c20.00177 27.90241 36.13671 42.05369 48.05407 42.05369zm35.55295-12.56752-.20011.18311c-2.54983 2.4333-10.284 9.83395-34.88633 10.70119h-.48295c-27.35242 0-72.78975-82.90738-73.2564-83.75721a.78339806.78339806 0 0 0 -.63349-.41646.81673428.81673428 0 0 0 -.73312.28305l-48.33704 56.83791-21.28494-13.45117c2.83317-7.80046 31.16841-85.00709 44.01986-93.07409 6.95051-4.40045 27.50211-7.7174 45.67082 4.10045 9.66691 6.28342 57.27139 71.47221 57.75432 72.13946z" fill="#231f20"/><path d="m262.49652 182.97699c0-.98307-12.21761-17.08457-15.26827-18.58515a93.541026 93.541026 0 0 1 -8.51758-5.20021l4.56706-10.36769s3.61697 1.45045 2.86725-1.76648c-.75035-3.21696 5.717-7.7174 5.717-7.7174s8.43409 7.50064 8.63424 16.135c.16642 6.95061 18.8515 18.08481 18.8515 18.08481z" fill="#fff"/><path d="m262.49652 183.74365a.90007438.90007438 0 0 0 .41625-.0957l16.83523-9.41764a.83340218.83340218 0 0 0 0-1.4502c-5.00108-3.03329-18.33527-12.06769-18.43533-17.38447-.21675-8.88408-8.56743-16.43509-8.91696-16.66804a.85007008.85007008 0 0 0 -1.03349 0c-.69996.48276-6.88389 4.91631-6.03426 8.58327.14847.63354 0 .91713 0 .98389 0 .066-1.13342 0-1.6669-.16637a.83340218.83340218 0 0 0 -1.06654.43321l-4.56703 10.36763a.83340218.83340218 0 0 0 .28374 1.01658 92.324306 92.324306 0 0 0 8.61742 5.26688c2.7498 1.35005 14.20082 16.43508 14.81725 17.96843a.81673428.81673428 0 0 0 .40011.58344.78339806.78339806 0 0 0 .35051-.0102zm15.20072-10.28442-14.86785 8.33463c-2.36697-4.11699-12.5345-16.86821-15.25115-18.18515a86.673815 86.673815 0 0 1 -7.81736-4.76709l3.98364-9.05094a3.0669228 3.0669228 0 0 0 2.66739-.34973 2.5168721 2.5168721 0 0 0 .54952-2.61722c-.41618-1.80015 2.55017-4.75022 4.83382-6.46655 1.75037 1.66672 7.71733 8.10056 7.86765 15.08385.14801 6.35101 13.60059 15.26822 18.03434 18.0182z" fill="#231f20"/><path d="m286.31461 56.299727c16.46863-20.251539 43.82021-10.00064 51.82111 11.918023 3.16712 8.717285 6.2169 16.668111 12.11792 23.901846 5.26697 6.516894 13.50091 12.268004 13.81769 21.434704.21661 6.40115-4.05045 12.31825-9.55117 15.58476-5.50011 3.26676-12.03428 4.3002-18.33486 4.65088a102.09177 102.09177 0 0 1 -41.85309-6.5006c-5.43412-2.06704-11.78441-5.3677-14.65084-10.7681-3.51762-6.58353.33272-11.58431 1.80013-18.334774 1.19967-5.583415-.6173-11.283994-1.81709-16.868161-2.03382-9.233398.74977-17.701037 6.6502-25.018578z" fill="#fff"/><path d="m330.63539 134.77301c1.85001 0 3.71686 0 5.56676-.14834 5.55071-.31663 12.68441-1.1329 18.80169-4.76684 6.11726-3.63322 10.16747-10.1338 10.00095-16.33489-.35019-7.217-5.11715-12.21749-9.78392-17.217423-1.53416-1.666688-2.98392-3.134053-4.26725-4.734142-5.66726-7.000783-8.66715-14.551246-11.98458-23.668851-4.38381-12.017296-14.73453-21.034951-26.36867-22.98474-10.25108-1.666932-19.80145 2.116537-26.86855 10.81734-6.53442 8.033961-8.86807 16.667728-6.91771 25.769136.20006.916242.41723 1.849723.6333 2.766897 1.05031 4.549882 2.15045 9.267463 1.18377 13.73407a46.670532 46.670532 0 0 1 -1.51728 5.100333c-1.49953 4.45066-2.91635 8.66744-.19973 13.76773 2.40009 4.50031 7.4671 8.25106 15.08449 11.15143a103.64189 103.64189 0 0 0 36.63673 6.75041zm-22.75233-88.574077a27.05226 27.05226 0 0 1 4.45054.383291c11.0506 1.850502 20.90157 10.450862 25.00254 21.918766 3.33345 9.267456 6.43387 16.93432 12.25045 24.151677 1.33322 1.666705 2.88337 3.33391 4.36693 4.83395 4.45057 4.683423 9.05106 9.517313 9.26763 16.101713.20001 5.60046-3.33351 11.4173-9.13428 14.85091-5.80062 3.43353-12.68451 4.23335-18.05101 4.51734a101.95842 101.95842 0 0 1 -41.38696-6.43384c-7.21736-2.75061-12.00127-6.25072-14.20092-10.38482-2.38359-4.46686-1.13394-8.16722.31656-12.45089a45.770458 45.770458 0 0 0 1.55029-5.283259c1.04946-4.833933-.0856-9.734609-1.18385-14.451534-.2168-.916918-.43317-1.833273-.63326-2.750444-1.83384-8.55051.38329-16.668114 6.58428-24.385303 5.58356-6.933489 12.86771-10.617557 20.80106-10.617557z" fill="#231f20"/><path d="m347.50365 117.72163c6.66687 8.60094 5.45014 48.55408-10.40146 69.35604-15.85078 20.80137-24.11853 47.9034-60.12108 61.77158l-28.48634-58.13853s23.53535-20.80154 24.48584-27.41902c.94981-6.6171-3.61719-16.66766-.33355-25.43507 13.91819-36.73639 68.23855-28.71894 74.85659-20.135z" fill="#0c8680"/><path d="m302.24961 108.98725.0856 16.15132s-1.31714 6.66762 9.4673 4.13398c10.7842-2.53351 15.58418-15.81766 15.58418-15.81766l-.96676-23.602375s-16.86776-9.034015-14.46769-26.385524a22.101801 22.101801 0 0 1 -22.60189 11.53456s-.2663 15.501136 1.01719 23.852249c1.28346 8.35032 11.88413 10.13345 11.88413 10.13345z" fill="#fff"/><path d="m307.48303 130.68938a19.151626 19.151626 0 0 0 4.50102-.61678c11.10041-2.63354 15.98415-15.76798 16.18416-16.33459a.96674617.96674617 0 0 0 0-.3167l-.96678-23.602273a.81673428.81673428 0 0 0 -.45005-.699849c-.14797-.0856-16.31756-8.984166-14.01768-25.535175a.83340218.83340218 0 0 0 -.58336-.900054.81673428.81673428 0 0 0 -1.00028.416639 21.085048 21.085048 0 0 1 -21.6685 11.083851.83340218.83340218 0 0 0 -.65019.200205.85007008.85007008 0 0 0 -.29975.616897c0 .633133-.24996 15.650853 1.01659 23.968609 1.16681 7.6676 9.41773 10.13416 11.88491 10.70073l.0856 15.46768a4.7170553 4.7170553 0 0 0 1.31706 4.03396 6.4171974 6.4171974 0 0 0 4.65053 1.51685zm19.06834-17.36798c-.56657 1.43326-5.31677 12.85065-15.00136 15.1511-3.73368.88375-6.38377.71641-7.63362-.50035a3.2336039 3.2336039 0 0 1 -.81648-2.68312v-16.30178a.85007008.85007008 0 0 0 -.70055-.81633c-.0958 0-10.00072-1.80011-11.20036-9.45058a182.28147 182.28147 0 0 1 -1.01754-22.7854 22.635159 22.635159 0 0 0 20.73531-9.284546c-.0956 14.118492 12.25141 22.218973 14.7016 23.685403z" fill="#231f20"/><path d="m321.31744 88.969338a8.3340218 8.3340218 0 0 1 8.71761-5.833968c4.68355.733286 4.61694 6.033565 3.15018 9.450561a8.5507047 8.5507047 0 0 1 -11.31741 4.417345" fill="#fff"/><path d="m325.35158 98.56975a9.3341055 9.3341055 0 0 0 8.60044-5.667174 9.700801 9.700801 0 0 0 .14808-7.949979 5.2337643 5.2337643 0 0 0 -3.95007-2.633458 9.1174181 9.1174181 0 0 0 -9.63388 6.450177.85706788.85706788 0 1 0 1.66671.399619 7.6172958 7.6172958 0 0 1 7.78394-5.216698 3.5336238 3.5336238 0 0 1 2.73316 1.800177 7.9839922 7.9839922 0 0 1 -.21613 6.500511 7.6839666 7.6839666 0 0 1 -10.2181 3.983686.85007008.85007008 0 0 0 -1.10006.416689.83340218.83340218 0 0 0 .43371 1.100259 9.4674466 9.4674466 0 0 0 3.74998.816191z" fill="#231f20"/><path d="m299.64898 83.351996s-5.96688 8.200482-4.68352 9.71744c1.28333 1.516805 5.0002.700607 5.0002.700607" fill="#fff"/><path d="m297.89889 94.819794a13.334462 13.334462 0 0 0 2.3336-.233553.85158033.85158033 0 0 0 -.34949-1.666635c-1.08406.23337-3.55049.433007-4.26738-.416656-.26687-.766715 1.93353-4.850191 4.7174-8.700917a.80006616.80006616 0 0 0 -.18396-1.150008.83340218.83340218 0 0 0 -1.15017.183531c-2.90017 3.983882-6.06651 9.083948-4.64969 10.734282a4.5670433 4.5670433 0 0 0 3.54969 1.249956z" fill="#231f20"/><ellipse cx="-306.64709" cy="70.038368" fill="#231f20" rx="1.316772" ry="3.05025" transform="matrix(-.99957015 -.02931733 -.02931733 .99957015 0 0)"/><ellipse cx="-295.47168" cy="71.671051" fill="#231f20" rx="1.316772" ry="3.05025" transform="matrix(-.99957015 -.02931733 -.02931733 .99957015 0 0)"/><path d="m302.24961 108.98725s6.13357 1.11725 13.4342-3.66697c0 0-2.70015 11.35151-13.33452 12.40135z" fill="#231f20"/><path d="m302.29935 118.55497c11.16747-1.09992 14.08449-12.93444 14.11829-13.05096a.80006616.80006616 0 0 0 -.33355-.86658.83340218.83340218 0 0 0 -.93385 0 19.201607 19.201607 0 0 1 -12.81704 3.55044.90007438.90007438 0 0 0 -.68389.18324.83340218.83340218 0 0 0 -.29975.65022v8.7336a.80006616.80006616 0 0 0 .26679.60042.85007008.85007008 0 0 0 .683.19962zm11.88409-11.38415c-1.23271 3.05002-4.34999 8.51708-11.06757 9.61734v-6.86678a21.018374 21.018374 0 0 0 11.06757-2.75056z" fill="#231f20"/><path d="m308.96643 88.969338s0 16.384992-14.38426 11.101092" fill="#fff"/><path d="m299.78247 101.95359a8.6507153 8.6507153 0 0 0 5.10056-1.51699c4.85079-3.333273 5.00024-11.134316 5.00024-11.467262a.85007008.85007008 0 0 0 -.83334-.8334.83340218.83340218 0 0 0 -.83331.8334s0 7.216855-4.2007 10.100822c-2.21633 1.54975-5.26698 1.66679-9.06728.21656a.83340218.83340218 0 0 0 -.56651 1.56692 16.018036 16.018036 0 0 0 5.40034 1.09995z" fill="#231f20"/><path d="m209.84174 168.65931c.73384-.24982 19.56838-5.00044 19.56838-5.00044s-31.46936-49.78754-32.20281-50.00386c-.73299-.21724-27.00226-5.50114-27.00226-5.50114z" fill="#fff"/><path d="m209.84174 169.49265h.26685c.56652-.20022 11.98463-3.0669 19.50175-5.00023a.83340218.83340218 0 0 0 .49976-1.25054c-31.66945-50.00426-32.28571-50.25416-32.63622-50.38761-.76668-.24984-22.71843-4.63372-27.11833-5.51669a.83340218.83340218 0 0 0 -.85035 1.28336l39.63659 60.50518a.86673815.86673815 0 0 0 .69995.36653zm18.25141-6.3175c-3.83351.96677-15.00104 3.7835-17.88486 4.53424l-38.23582-58.33878c9.83405 1.96754 22.95157 4.61734 24.78482 5.00067 1.88345 2.434 19.38486 29.90275 31.33586 48.80387z" fill="#231f20"/></g><path d="m160.67 176.12 18.23-26.42 14.56 3.72-19.32 30.02z" fill="#fff" transform="matrix(-1.666809 0 0 1.666809 519.6674 -142.04985)"/><path d="m229.41012 164.54233a.88340628.88340628 0 0 0 .40039-.0956l22.45175-12.20097a.81673428.81673428 0 0 0 .39976-.53337.78339806.78339806 0 0 0 -.12138-.66729l-30.38556-44.03664a.81673428.81673428 0 0 0 -.88359-.3333l-24.26847 6.18383a.83340218.83340218 0 0 0 -.58337.49991.90007438.90007438 0 0 0 .0856.76661l32.20246 50.00421a.85007008.85007008 0 0 0 .70025.41602zm21.23513-13.33483-21.00198 11.40126-31.16867-48.42071 22.60142-5.76733z" fill="#231f20" stroke-width="1.66662"/><path d="m321.31744 175.84278s-22.20116 36.66999-39.71958 43.33752c-17.51828 6.66674-67.38915-44.53717-67.38915-44.53717s-6.10042 2.80005-12.38384-5.45046a63.921944 63.921944 0 0 1 -9.0513-16.76847s-3.24987-6.66662-2.0163-10.68425c1.04955-3.48332 4.36696 3.3339 4.36696 3.3339s5.58341 8.68405 8.90042 7.86709c3.31705-.81627.48341-9.66722 1.48335-12.26714 1.00036-2.60081 5.90099 6.66665 7.05094 10.61755 1.14988 3.95001 7.26716 11.23367 9.91767 13.53409 2.64972 2.30058 42.16951 29.35214 45.50317 29.10222 3.3342-.24992 27.35215-29.46911 27.35215-29.46911z" fill="#fff" stroke-width="1.66662"/><path d="m278.13112 220.53038a10.517534 10.517534 0 0 0 3.76662-.63361c17.56817-6.66755 39.22035-42.10343 40.13636-43.62038a.81673428.81673428 0 0 0 0-.68355.83340218.83340218 0 0 0 -.45002-.49966l-25.90178-11.40128a.85007008.85007008 0 0 0 -.98361.23346c-11.50081 14.08464-24.66818 28.85233-26.7689 29.18598-3.33346 0-41.53639-25.78543-45.00316-28.78619-2.68411-2.34953-8.60134-9.5003-9.66786-13.15063-.80019-2.78351-4.78387-11.56773-7.28415-11.66771a1.3334462 1.3334462 0 0 0 -1.35006 1.00002 13.901186 13.901186 0 0 0 -.0856 5.16687c.2342 2.6335.55092 6.23378-.83338 6.58445-1.84974.43291-5.80055-4.11699-7.98406-7.51756-.84984-1.76704-2.61638-4.90012-4.31701-4.7668-.4999 0-1.16649.34938-1.53338 1.5665-1.31592 4.35068 1.91684 11.01731 2.06701 11.30121a63.005191 63.005191 0 0 0 9.134 16.90095c5.56774 7.33391 11.0676 6.45096 12.81808 5.91709 4.7501 4.70049 44.93694 44.87084 64.23879 44.87084zm41.96942-44.2206c-3.33341 5.40031-23.18464 36.21947-38.78628 42.12008-6.86709 2.58332-20.50148-4.18369-39.43658-19.60161-14.45075-11.76746-26.93514-24.50168-27.0686-24.63514a.81673428.81673428 0 0 0 -.93384-.16694c-.23318.0958-5.61651 2.38356-11.38417-5.20067a63.888612 63.888612 0 0 1 -8.93411-16.53466c0-.16617-3.11675-6.45029-2.00018-10.18387a.95007809.95007809 0 0 1 .20006-.43367 13.451149 13.451149 0 0 1 2.61692 3.96742c1.03344 1.66703 6.15081 9.21728 9.85072 8.33367 2.75084-.68285 2.38357-4.75007 2.06683-8.33367a18.484816 18.484816 0 0 1 -.0856-4.23384c1.36706 1.03345 4.56709 6.91737 5.56789 10.3345 1.19948 4.13346 7.35046 11.46747 10.15041 13.93391 2.18341 1.91703 41.66994 29.18635 46.12023 29.18635 3.48388-.25031 21.45237-21.85243 27.53578-29.28578z" fill="#231f20" stroke-width="1.66662"/><path d="m295.41548 165.27547a.83340218.83340218 0 0 0 .74979-.46631l12.93442-26.83551a.82378289.82378289 0 0 0 -1.48335-.71697l-12.95058 26.83563a.81673428.81673428 0 0 0 .38329 1.10024.73339385.73339385 0 0 0 .36643.0856z" fill="#231f20" stroke-width="1.66662"/><path d="m321.31744 176.67616a.83340218.83340218 0 0 0 .75047-.46637c.14828-.33303 16.10158-33.20272 19.31852-37.26939a.83340218.83340218 0 0 0 -.13335-1.16697.81673428.81673428 0 0 0 -1.16697.13349c-3.33341 4.2164-18.85151 36.21946-19.51856 37.58643a.83340218.83340218 0 0 0 .38329 1.09993.73339385.73339385 0 0 0 .3666.0856z" fill="#231f20" stroke-width="1.66662"/><path d="m246.14498 252.98272a.8429333.8429333 0 0 0 .24993-1.66711c-19.43502-6.35021-48.53756-48.47022-48.83744-48.90364a.83340218.83340218 0 0 0 -1.14988-.2001.81673428.81673428 0 0 0 -.21708 1.1502c1.20033 1.75009 29.71907 43.0032 49.68765 49.53764z" fill="#fff" stroke-width="1.66662"/><path d="m251.86198 139.27341a33.33606 33.33606 0 0 0 -6.66685-3.8002c-5.45106-2.40024-12.71822-1.81676-10.90132.53328 1.8171 2.35045 14.13434 7.46693 14.13434 7.46693s-1.06653 5.61741 5.36737 8.10099" fill="#fff" stroke-width="1.66662"/><path d="m253.86215 152.40777a.84679577.84679577 0 0 0 .29988-1.66676c-5.68333-2.18384-4.90048-6.96708-4.8499-7.16689a.85007008.85007008 0 0 0 -.50065-.91713c-4.8669-2.01678-12.55089-5.61741-13.78387-7.20043a.66672166.66672166 0 0 1 -.12124-.20019c.46663-.69985 5.48371-1.06674 10.00057.91715a35.086217 35.086217 0 0 1 6.35067 3.63294.85007008.85007008 0 0 0 1.16679 0 .81673428.81673428 0 0 0 0-1.15004 32.919388 32.919388 0 0 0 -6.85063-3.98356c-4.51719-1.98318-10.58436-2.1663-12.00111-.36619a1.666809 1.666809 0 0 0 .12149 2.16631c1.66692 2.25013 11.26761 6.38423 13.90103 7.50077a8.3340218 8.3340218 0 0 0 5.9509 8.33402.96674617.96674617 0 0 0 .31656.0958z" fill="#231f20" stroke-width="1.66662"/><path d="m321.16784 239.51528a.85007008.85007008 0 0 0 .79954-.58342c9.35121-29.41933 54.35484-110.42589 54.83827-111.24276a.83340218.83340218 0 0 0 -1.45018-.80017c-.46667.81687-45.55339 81.97335-55.00417 111.54271a.83340218.83340218 0 0 0 .54975 1.03338.66672166.66672166 0 0 0 .26679.0478z" fill="#d1d3d4" stroke-width="1.66662"/></svg>