<svg height="306" viewBox="0 0 400 300" width="406" xmlns="http://www.w3.org/2000/svg"><path d="m331.18 249.41v-205.33h-24.04v180.31z" fill="none" transform="matrix(-1.3404289 0 0 1.3404289 468.08474 -51.063938)"/><path d="m24.162231 283.92204a-.68361773.68361773 0 0 0 .48264-.20096l32.17019-33.5105a-.69702204.69702204 0 0 0 .1875-.46919v-241.719355a-.65680924.65680924 0 0 0 -.65671-.67017h-32.17019a-.67021346.67021346 0 0 0 -.67017.67017v275.243385a-.67021346.67021346 0 0 0 .41556.61661-.77744737.77744737 0 0 0 .24118.0391zm31.55355-34.47588-30.89684 32.17057v-272.924434h30.89684z" fill="none" stroke-width="1.34034"/><path d="m-343.61285 8.021964h287.23972v241.69223h-287.23972z" fill="none" stroke-width="1.34034" transform="scale(-1 1)"/><path d="m56.385951 250.38449h287.226679a-.67021346.67021346 0 0 0 .67025-.67022v-241.692235a-.67021346.67021346 0 0 0 -.67025-.67017h-287.226679a-.67021346.67021346 0 0 0 -.67017.67017v241.692235a-.67021346.67021346 0 0 0 .67017.67022zm286.569909-1.34039h-285.913209v-240.351804h285.913209z" fill="#231f20" stroke-width="1.34034"/><path d="m206.70127 243.15988h120.77246a-.68361773.68361773 0 0 0 .67017-.67017v-222.350146a-.67021346.67021346 0 0 0 -.67017-.670261h-120.77246a-.67021346.67021346 0 0 0 -.67017.670261v222.350146a-.68361773.68361773 0 0 0 .67017.67017zm120.10229-1.34038h-119.43207v-221.009766h119.43207z" fill="none" stroke="#000" stroke-width=".415996"/><path d="m72.484491 243.15988h120.812549a-.68361773.68361773 0 0 0 .67018-.67017v-222.350146a-.67021346.67021346 0 0 0 -.67018-.670261h-120.772359a-.67021346.67021346 0 0 0 -.67026.670261v222.350146a-.68361773.68361773 0 0 0 .63007.67017zm120.102289-1.34038h-119.432029v-221.009766h119.432029z" fill="none" stroke="#000" stroke-width=".415996"/><path d="m92.86 224.39h214.28l24.04 25.02h-262.36z" fill="none" transform="matrix(-1.3404289 0 0 1.3404289 468.08474 -51.063938)"/><path d="m24.162231 283.92204h351.674319a-.68361773.68361773 0 0 0 .6166-.40192-.65680924.65680924 0 0 0 -.13404-.72382l-32.17025-33.5106a-.64340494.64340494 0 0 0 -.48259-.2145h-287.280319a-.64340494.64340494 0 0 0 -.48268.2145l-32.1701 33.5106a-.65680924.65680924 0 0 0 -.13391.72382-.68361773.68361773 0 0 0 .56297.40192zm350.092619-1.32679h-348.511129l30.93702-32.17059h286.650489z" fill="#231f20" stroke-width="1.34034"/><path d="m92.86 224.39v-180.31h-24.04v205.33z" fill="none" transform="matrix(-1.3404289 0 0 1.3404289 468.08474 -51.063938)"/><g stroke-width="1.34034"><path d="m375.83655 283.92204a-.77744737.77744737 0 0 0 .25469 0-.67021346.67021346 0 0 0 .4155-.61652v-275.283485a-.67021346.67021346 0 0 0 -.67019-.67017h-32.17028a-.65680924.65680924 0 0 0 -.65678.67017v241.692235a-.69702204.69702204 0 0 0 .18761.46921l32.17031 33.51097a-.68361773.68361773 0 0 0 .46914.22759zm-.65681-275.229744v272.910974l-30.82982-32.17016v-240.740814z" fill="none"/><path d="m343.00949 182.55905c2.82829.50922 23.02855.1745 22.6264 4.19561-.40212 4.02102-10.24086 44.23395-13.02895 55.02461-2.78808 10.79027-10.36143 20.10627-17.53308 24.12737-7.17093 4.02159-28.95282-13.48441-33.80496-14.74472-4.85293-1.25967 41.74059-68.60287 41.74059-68.60287z" fill="#231f20"/><path d="m332.47409 267.15324a-5.8978782 5.8978782 0 0 0 2.93528-.67017c6.70194-3.78005 14.74459-12.8278 17.85438-24.54329 2.82832-10.92414 12.64022-51.0167 13.04237-55.11792a-1.9034077 1.9034077 0 0 0 -.48256-1.44771c-1.97043-2.27869-10.18724-2.82874-18.41748-3.19065-1.97042-.0973-3.65934-.17377-4.28935-.28098a-.67021346.67021346 0 0 0 -.65673.28098c-7.35889 10.72363-43.97915 64.05906-42.11598 68.99205a-1.1125545 1.1125545 0 0 0 .76393.68372c1.434.34836 4.70483 2.39903 8.49846 4.75851 7.30464 4.55749 16.88889 10.53546 22.86768 10.53546zm10.84369-83.87037c.83108.0973 2.22511.16095 4.02129.22809 5.48235.25474 15.6964.71033 17.42556 2.68083a-.57638352.57638352 0 0 1 .17425.44193c-.40212 3.95464-10.26768 44.34135-13.01556 54.95758-2.93551 11.32659-10.72339 20.10674-17.21137 23.71238-4.55753 2.55995-16.51402-4.89281-24.43532-9.83886a-51.177504 51.177504 0 0 0 -8.74019-4.87929c-.64309-3.98106 25.0798-43.0947 41.78134-67.30266z" fill="#231f20"/><path d="m267.34211 157.84187s94.03123-3.82032 94.43335 2.88164c.40215 6.70191-46.47292 105.50495-53.32201 106.95259-6.84992 1.44764-7.5601-5.06674-10.18713-4.41011-2.62777.65716-29.14103-7.50642-37.53225-14.74469-8.39122-7.23826 14.12813-61.95418 13.1497-68.73668-.97843-6.78254-14.26202-20.97796-6.54166-21.94275z" fill="#fff"/><path d="m306.59025 268.57442a-9.1283064 9.1283064 0 0 0 1.99687-.22815c4.62481-.96488 22.41205-36.56655 29.85131-51.83406 11.79597-24.2216 24.22171-52.02229 24.00726-55.7887-.0937-1.46128-.2815-4.87942-48.04073-4.62475-23.29682.1073-46.91536 1.07287-47.08922 1.08575a-3.1634091 3.1634091 0 0 0 -2.68069 1.60851c-1.2203 2.45335 1.42037 6.9707 4.20835 11.75571 2.02415 3.44517 4.10195 7.02369 4.45022 9.38329.33554 2.21147-2.25148 10.62915-5.24045 20.36065-5.99233 19.53038-13.4043 43.832-7.66737 48.77853 8.44474 7.23829 35.21257 15.54867 38.09505 14.81139.58931-.13385 1.11217.40247 1.99694 1.34078a-7.8549013 7.8549013 0 0 0 6.11246 3.35105zm10.72362-111.25541c27.89392 0 43.61715 1.40747 43.73776 3.41814.18767 3.01551-10.53576 27.75977-23.87278 55.1449-16.82238 34.64988-26.63484 50.73534-28.85995 51.16395-3.8335.8046-5.46869-1.0185-6.90269-2.68074-.99207-1.09927-1.91685-2.11781-3.32448-1.76948-2.2515.5499-28.51087-7.35899-36.88845-14.54365-5.10675-4.36946 2.82799-30.23966 8.04276-47.35692 3.16289-10.30781 5.65617-18.44442 5.29426-20.96422-.36191-2.52048-2.54689-6.35406-4.62397-9.91964-2.37312-4.0211-5.06732-8.67228-4.16917-10.48183a-1.930217 1.930217 0 0 1 1.62223-.87113c19.38219-.73746 36.17827-1.08573 49.99811-1.08573z" fill="#231f20"/><path d="m96.169771 246.29618s-14.34265-.40197-16.20585-1.34039c-1.8632-.93834-12.61328-14.87841-15.13319-18.2028-2.51994-3.32448-3.19011-7.17117-4.91943-7.96202-1.72927-.79111-2.78798-2.13145-3.44472 0-.65705 2.13127 2.92195 17.42533 5.36157 25.7629 2.43971 8.33757 5.17404 19.53015 7.17117 20.85711 1.99743 1.32673 7.30532-.4021 8.76651-1.8632a-29.65025 29.65025 0 0 1 5.36154-3.45827s17.144169.13379 17.425849-.25467c.28128-.38901-4.383449-13.53866-4.383449-13.53866z" fill="#fff"/><path d="m70.983201 266.61739a-12.412336 12.412336 0 0 0 7.19819-2.53337-27.840682 27.840682 0 0 1 4.99963-3.25763c17.331669.13437 17.546179-.18753 17.800879-.56297.25462-.375.4426-.6702-4.182059-14.12811a-.64340494.64340494 0 0 0 -.60297-.4557c-5.49594-.14731-14.66454-.63004-15.92425-1.25967-1.26011-.62999-9.54403-10.93797-14.9056-18.00229a-22.385134 22.385134 0 0 1 -2.50679-4.43678c-.84458-1.78245-1.51475-3.20354-2.68068-3.73983a-7.6404306 7.6404306 0 0 1 -.99207-.5358c-.77747-.44274-1.50129-.85828-2.23857-.57651a-2.2385134 2.2385134 0 0 0 -1.13938 1.52784c-.80402 2.57402 3.41814 19.5166 5.36199 26.15191.38847 1.34034.79056 2.80162 1.19292 4.24926 2.68088 9.50337 4.50387 15.80335 6.24634 16.96976a-4.3831952 4.3831952 0 0 0 2.37242.58989zm12.06397-7.11791a-.72383066.72383066 0 0 0 -.29483 0-29.59661 29.59661 0 0 0 -5.4823 3.57909c-1.34078 1.34034-6.3003 2.85518-7.92198 1.76945-1.62205-1.08573-3.91427-9.78512-5.71036-16.21948-.40202-1.44764-.80405-2.89528-1.19303-4.26225-2.78798-9.75858-5.85767-23.67211-5.36146-25.388.18742-.58942.34837-.67017.34837-.67017s.75045.29483 1.08573.49624c.33489.20112.6968.40217 1.09927.58949.72382.3219 1.34044 1.60859 2.01061 3.09632a-25.079369 25.079369 0 0 0 2.68068 4.66474c.5364.71039 13.1497 17.27808 15.37481 18.39095 1.80955.89778 13.2569 1.34042 16.08499 1.34042 1.43418 4.19554 3.51189 10.45536 4.0212 12.34503-2.29177.17451-11.0719.18797-16.6344.14744z" fill="#231f20"/><path d="m251.52537 266.49671s-72.97305-9.26235-78.17347-9.70498c-5.20124-.44214-79.246379 5.17404-81.927149 4.77191-2.68068-.40192-3.39107-17.13065-3.39107-17.13065s71.672289-19.30217 91.993549-18.32367c11.7555.56339 49.86356 0 49.86356 0z" fill="#231f20"/><path d="m251.52537 267.16688a-.65680924.65680924 0 0 0 .59007-.97843l-21.59449-40.40043a-.67021346.67021346 0 0 0 -.60304-.34891c-.37539 0-38.2159.54996-49.81066 0-20.19988-.96488-89.272389 17.55982-92.207849 18.35084a-.65680924.65680924 0 0 0 -.49577.67017c.24107 5.20053 1.12584 17.3317 3.95401 17.77375 1.23312.18799 14.583779-.69669 36.271929-2.1313 20.10674-1.34043 42.89361-2.85475 45.66868-2.68083 5.09323.38904 77.40964 9.61121 78.14693 9.70497zm-22.0365-40.38732 20.78982 38.87239c-10.09347-1.34034-72.10167-9.1816-76.92679-9.54351-2.80162-.2145-24.69081 1.2332-45.85618 2.68086-17.10408 1.13938-34.784189 2.31877-35.977219 2.14432-1.19295-.17391-2.34544-7.57306-2.78807-15.96419 6.54156-1.74251 72.195589-19.08757 91.269569-18.16279 11.01829.49567 45.37342.0291 49.48887-.0291z" fill="#231f20"/><path d="m150.97986 239.98277s-7.17101 11.55469-7.96202 13.95421c-.79102 2.39902-.80449 8.9671-2.38606 11.95659-1.58144 2.98911-46.820969 2.39905-46.633469.6166.18792-1.783 19.530229-9.78512 24.610509-13.40431 5.07983-3.6191 18.39031-22.68012 18.39031-22.68012z" fill="#fff"/><path d="m117.58975 268.61452c11.32659 0 22.66665-.60307 23.61854-2.3996.95185-1.79601 1.42062-5.12042 1.7559-7.93502a-25.816632 25.816632 0 0 1 .68381-4.14187c.61652-1.8231 5.44209-9.82531 7.90837-13.8064a-.65680924.65680924 0 0 0 -.18753-.89815l-13.95415-9.55715a-.67021346.67021346 0 0 0 -.92487.16043c-.13377.18802-13.33702 19.07463-18.27 22.5598a-118.09171 118.09171 0 0 1 -12.31858 6.46081c-9.610709 4.66474-12.425789 6.19266-12.559639 7.37205q-.0782.72382.96497 1.04572c1.94386.60298 12.600289 1.13938 23.283179 1.13938zm32.49196-28.44376c-1.44771 2.34541-6.98367 11.39328-7.69403 13.55171a-26.567277 26.567277 0 0 0 -.7503 4.39657-24.851496 24.851496 0 0 1 -1.59549 7.46625c-.72382.79049-8.13606 1.70228-22.65319 1.74252-11.13902.0682-20.106099-.49627-22.425079-1.0457a-112.39483 112.39483 0 0 1 11.514039-6.01869-119.29816 119.29816 0 0 0 12.51962-6.58113c4.69137-3.31084 15.95124-19.12823 18.2029-22.33177z" fill="#231f20"/><path d="m280.62637 257.23436c-1.20665.80395-6.47435 8.52489-29.101 9.316-22.62665.79085-59.89047-67.69172-59.89047-67.69172l-39.32808 46.16444-18.05557-11.42042s24.70427-68.65707 35.85638-75.70719c11.15264-7.05083 29.48979-1.86317 37.53206 3.31087 8.04294 5.17404 46.62001 58.17406 46.62001 58.17406z" fill="#231f20"/><path d="m251.13644 267.18034h.4155c20.29404-.71071 26.80845-6.93001 28.93987-8.96755.22824-.2146.38919-.37554.49647-.45566a-.65680924.65680924 0 0 0 .29464-.42911-.73723497.73723497 0 0 0 -.1073-.50922l-26.43307-37.85394c-1.59496-2.18449-38.87259-53.17461-46.80806-58.36228-7.46572-4.85215-26.32595-10.80366-38.17532-3.31085-11.23276 7.09089-35.13255 73.22767-36.19121 76.04286a-.67021346.67021346 0 0 0 .26773.79048l18.069 11.42079a-.68361773.68361773 0 0 0 .87126-.13438l38.68509-45.41346a-383.75082 383.75082 0 0 0 21.03088 33.36301c16.08514 22.43912 29.06092 33.81931 38.64452 33.81931zm28.59154-10.10693-.16095.14731c-2.05052 1.95696-8.27028 7.90847-28.0553 8.60582h-.38828c-21.99649 0-58.53667-66.67323-58.91217-67.35644a-.63000063.63000063 0 0 0 -.50927-.33528-.65680924.65680924 0 0 0 -.58989.22806l-38.87195 45.70819-17.11727-10.81726c2.27832-6.27284 25.06566-68.36179 35.40028-74.84907 5.5896-3.53908 22.11725-6.20612 36.72814 3.2972 7.77399 5.05326 46.05704 57.47737 46.44551 58.01381z" fill="#231f20"/><path d="m261.27057 210.31947c0-.79085-9.82539-13.73959-12.27857-14.94617a-75.224734 75.224734 0 0 1 -6.8499-4.18206l3.67278-8.33754s2.90887 1.16663 2.30599-1.42039c-.60361-2.58702 4.59753-6.20612 4.59753-6.20612s6.78263 6.03153 6.94358 12.97511c.13367 5.5896 15.16021 14.54369 15.16021 14.54369z" fill="#fff"/><path d="m261.27057 210.93607a-.72383066.72383066 0 0 0 .33463-.0782l13.53876-7.57341a-.67021346.67021346 0 0 0 0-1.16621c-4.0218-2.43953-14.74517-9.7047-14.82545-13.9806-.17445-7.14448-6.88993-13.21671-7.17092-13.40427a-.68361773.68361773 0 0 0 -.83111 0c-.56298.38853-5.53595 3.95399-4.85282 6.90292.11952.50952 0 .73743 0 .79108 0 .0534-.91137 0-1.34048-.13401a-.67021346.67021346 0 0 0 -.85758.34853l-3.67275 8.33745a-.67021346.67021346 0 0 0 .22804.81765-74.246263 74.246263 0 0 0 6.93011 4.23565c2.2115 1.08572 11.4202 13.2167 11.91578 14.4499a-.65680924.65680924 0 0 0 .3219.46914-.63000063.63000063 0 0 0 .28189-.01zm12.2241-8.2708-11.95653 6.7024c-1.90344-3.31084-10.08006-13.56526-12.2649-14.62396a-69.702204 69.702204 0 0 1 -6.2864-3.8336l3.20354-7.27897a-2.4663868 2.4663868 0 0 0 2.14507-.28098-2.0240426 2.0240426 0 0 0 .44195-2.10496c-.33477-1.44767 2.0507-3.82018 3.88735-5.20053 1.40763 1.34034 6.20612 6.51438 6.32706 12.13056.11904 5.10745 10.93732 12.27836 14.50286 14.49004z" fill="#231f20"/><path d="m280.42473 108.44661c13.24395-16.285955 35.23974-8.04204 41.674 9.58425 2.54701 7.01076 4.9996 13.40431 9.7452 19.22204 4.23561 5.24053 10.85728 9.86534 11.11193 17.2374.17433 5.14748-3.25722 9.90596-7.68093 12.53299-4.42307 2.62724-9.67781 3.45827-14.74475 3.74004a-82.101155 82.101155 0 0 1 -33.65766-5.22769c-4.3702-1.66224-9.47695-4.31643-11.78211-8.65944-2.82887-5.2941.26745-9.31597 1.44765-14.74468.96481-4.49023-.49647-9.07412-1.46126-13.5651-1.6357-7.42568.60288-14.23484 5.34793-20.11981z" fill="#fff"/><path d="m316.0672 171.55442c1.48765 0 2.98894 0 4.47659-.11953 4.46386-.25468 10.20077-.91126 15.1202-3.83332 4.91938-2.92216 8.17656-8.14985 8.04258-13.13651-.28154-5.80369-4.11519-9.82527-7.86804-13.8463-1.23387-1.34037-2.39965-2.51989-3.43173-3.80677-4.55752-5.63016-6.96995-11.70186-9.6379-19.03443-3.52544-9.66431-11.84937-16.91615-21.20538-18.484055-8.24391-1.34051-15.92404 1.702345-21.60743 8.699285-5.25484 6.46094-7.13165 13.40393-5.5631 20.72296.16095.73735.3355 1.48765.50922 2.22511.84476 3.65911 1.72953 7.45279.95206 11.04517a-37.531959 37.531959 0 0 1 -1.22026 4.1014c-1.20581 3.57909-2.34519 6.97053-.16074 11.07191 1.93023 3.61914 6.00504 6.63531 12.131 8.96771a-83.347763 83.347763 0 0 0 29.46293 5.42866zm-18.29737-71.23078a-21.755147 21.755147 0 0 1 3.57909.30826c8.8868 1.48842 16.80881 8.40486 20.10688 17.6272 2.68072 7.45278 5.17406 13.61819 9.85163 19.4222 1.0721 1.34041 2.31877 2.68131 3.51181 3.88735 3.57912 3.76647 7.27887 7.65376 7.45294 12.94874.16089 4.50387-2.6808 9.18206-7.34564 11.94303-4.66483 2.76161-10.20078 3.40453-14.51642 3.63274a-81.993905 81.993905 0 0 1 -33.28299-5.17404c-5.8042-2.21152-9.65135-5.02673-11.42017-8.35121-1.91685-3.59182-.91205-6.56803.25461-10.01254a-36.808131 36.808131 0 0 0 1.24668-4.24926c.84385-3.88735-.0682-7.82835-.95206-11.62138-.1745-.73721-.34827-1.47467-.50922-2.21213-1.47487-6.87629.30826-13.40431 5.29493-19.61043 4.49028-5.57596 10.34811-8.53853 16.72793-8.53853z" fill="#231f20"/><path d="m329.6324 157.84187c5.36141 6.9163 4.38299 39.04627-8.36479 55.77506-12.74702 16.72853-19.39583 38.52351-48.34877 49.67615l-22.9084-46.75441s18.92685-16.72813 19.69136-22.05002c.76383-5.32153-2.90892-13.40387-.26825-20.45449 11.19282-29.54295 54.87665-23.09586 60.19885-16.19229z" fill="#0c8680"/><path d="m293.23959 150.8175.0682 12.98873s-1.05934 5.36215 7.61352 3.32436c8.67245-2.0371 12.53252-12.7205 12.53252-12.7205l-.77747-18.98027s-13.56474-7.26548-11.63477-21.21902a-17.774055 17.774055 0 0 1 -18.1761 9.27597s-.21414 12.46591.81803 19.18125c1.0321 6.71534 9.557 8.14948 9.557 8.14948z" fill="#fff"/><path d="m297.44816 168.26997a-15.401526 15.401526 0 0 0 3.61973-.49558c8.92686-2.11786 12.85422-12.68049 13.01517-13.13617a-.77744737.77744737 0 0 0 0-.25475l-.77747-18.98093a-.65680924.65680924 0 0 0 -.36191-.56287c-.11904-.0682-13.12242-7.22456-11.27286-20.53521a-.67021346.67021346 0 0 0 -.46921-.72382-.65680924.65680924 0 0 0 -.80451.33547-16.956393 16.956393 0 0 1 -17.42557 8.91324-.67021346.67021346 0 0 0 -.52285.16095-.68361773.68361773 0 0 0 -.24098.49647c0 .50924-.20096 12.58599.81748 19.27491.93842 6.16611 7.57374 8.15018 9.55772 8.60582l.0682 12.43873a-3.7934079 3.7934079 0 0 0 1.05904 3.24434-5.1606439 5.1606439 0 0 0 3.73998 1.2194zm15.33457-13.96718c-.45557 1.15302-4.27563 10.3345-12.06397 12.18477-3.00258.71032-5.13379.57595-6.13883-.40261a-2.6004299 2.6004299 0 0 1 -.65653-2.1579v-13.10955a-.68361773.68361773 0 0 0 -.56354-.65667c-.0782 0-8.04228-1.44764-9.00709-7.60011a-146.58901 146.58901 0 0 1 -.81833-18.32374-18.202982 18.202982 0 0 0 16.6751-7.46639c-.0782 11.35374 9.8525 17.86812 11.823 19.04751z" fill="#231f20"/><path d="m308.57367 134.71946a-6.7021346 6.7021346 0 0 1 7.01068-4.69192c3.76641.59015 3.71276 4.85227 2.53337 7.60011a-6.8763893 6.8763893 0 0 1 -9.1014 3.55272" fill="#fff"/><path d="m311.81794 142.43978a-7.5063921 7.5063921 0 0 0 6.9163-4.55743-7.8012858 7.8012858 0 0 0 .11904-6.39353-4.2089397 4.2089397 0 0 0 -3.1765-2.11781-7.3321342 7.3321342 0 0 0 -7.74751 5.18768-.68924522.68924522 0 1 0 1.34043.32112-6.1257516 6.1257516 0 0 1 6.25977-4.19508-2.8417034 2.8417034 0 0 1 2.19788 1.44771-6.4206446 6.4206446 0 0 1 -.17378 5.22762-6.1793674 6.1793674 0 0 1 -8.21731 3.20372-.68361773.68361773 0 0 0 -.88469.3347-.67021346.67021346 0 0 0 .34892.88477-7.6136238 7.6136238 0 0 0 3.01555.65653z" fill="#231f20"/><path d="m291.14815 130.20213s-4.79849 6.59447-3.76641 7.81471c1.03208 1.2194 4.02102.56287 4.02102.56287" fill="#fff"/><path d="m289.74066 139.4244a-10.723422 10.723422 0 0 0 1.8767-.18816-.68483227.68483227 0 0 0 -.28098-1.34034c-.87189.18798-2.85527.34837-3.43178-.33468-.2146-.61665 1.55494-3.90094 3.79369-6.99718a-.64340494.64340494 0 0 0 -.14804-.92478-.67021346.67021346 0 0 0 -.92496.14731c-2.33232 3.20354-4.87851 7.30549-3.73913 8.63219a-3.6727688 3.6727688 0 0 0 2.8545 1.00564z" fill="#231f20"/><ellipse cx="-298.60675" cy="117.99731" fill="#231f20" rx="1.058937" ry="2.452982" transform="matrix(-.99957015 -.02931733 -.02931733 .99957015 0 0)"/><ellipse cx="-289.61984" cy="119.30989" fill="#231f20" rx="1.058937" ry="2.452982" transform="matrix(-.99957015 -.02931733 -.02931733 .99957015 0 0)"/><path d="m293.23959 150.8175s4.9324.89827 10.80365-2.94895c0 0-2.17146 9.12856-10.72363 9.97332z" fill="#231f20"/><path d="m293.2796 158.51204c8.98069-.88477 11.32651-10.40173 11.35379-10.49555a-.64340494.64340494 0 0 0 -.26825-.69729-.67021346.67021346 0 0 0 -.7511 0-15.441736 15.441736 0 0 1 -10.30729 2.85527-.72383066.72383066 0 0 0 -.55001.14731-.67021346.67021346 0 0 0 -.24097.52286v7.0236a-.64340494.64340494 0 0 0 .2146.48285-.68361773.68361773 0 0 0 .54923.16095zm9.55697-9.15505c-.99131 2.45244-3.49816 6.84901-8.90044 7.73378v-5.52231a-16.902761 16.902761 0 0 0 8.90044-2.21147z" fill="#231f20"/><path d="m298.64107 134.71946s0 13.17625-11.56759 8.92699" fill="#fff"/><path d="m291.25545 145.16138a-6.956817 6.956817 0 0 0 4.10195-1.22031c3.90084-2.68068 4.02102-8.95408 4.02102-9.22161a-.68361773.68361773 0 0 0 -.67017-.67025-.67021346.67021346 0 0 0 -.67017.67025s0 5.80352-3.37812 8.12299c-1.78228 1.24614-4.23563 1.3405-7.29186.17384a-.67021346.67021346 0 0 0 -.45557 1.26032-12.881523 12.881523 0 0 0 4.34292.88477z" fill="#231f20"/><path d="m218.92619 198.80499c.59-.20096 15.73672-4.02102 15.73672-4.02102s-25.30733-40.03859-25.89739-40.21293c-.58933-.17459-21.71469-4.42378-21.71469-4.42378z" fill="#fff"/><path d="m218.92619 199.47516h.2146c.45557-.16095 9.63777-2.46608 15.68307-4.02102a-.67021346.67021346 0 0 0 .40192-1.00571c-25.46828-40.21286-25.96386-40.41389-26.24575-40.52118-.61652-.20097-18.27001-3.72639-21.80834-4.43659a-.67021346.67021346 0 0 0 -.68373 1.03208l31.87536 48.6578a-.69702204.69702204 0 0 0 .56287.29462zm14.67741-5.08038c-3.08265.77747-12.06378 3.0428-14.38278 3.64638l-30.74893-46.91533c7.90857 1.58201 18.45762 3.71346 19.93172 4.02172 1.51484 1.95686 15.58932 24.04701 25.19999 39.24723z" fill="#231f20"/></g><path d="m178.9 149.7 14.56 3.72-19.32 30.02-13.47-7.32z" fill="#fff" transform="matrix(-1.3404289 0 0 1.3404289 468.08474 -51.063938)"/><path d="m234.66291 195.49415a-.71042635.71042635 0 0 0 .32188-.0782l18.05551-9.81202a-.65680924.65680924 0 0 0 .32125-.42884-.63000063.63000063 0 0 0 -.0973-.53642l-24.43582-35.41398a-.65680924.65680924 0 0 0 -.71047-.26799l-19.51659 4.97293a-.67021346.67021346 0 0 0 -.46913.40216-.72383066.72383066 0 0 0 .0682.61655l25.89697 40.21281a-.68361773.68361773 0 0 0 .56305.33481zm17.07706-10.72363-16.88974 9.16869-25.06548-38.93906 18.17569-4.63836z" fill="#231f20" stroke-width="1.34034"/><path d="m308.57367 204.58205s-17.85395 29.48981-31.94193 34.85143c-14.08812 5.36142-54.19375-35.81636-54.19375-35.81636s-4.90579 2.25213-9.95904-4.38293a-51.40538 51.40538 0 0 1 -7.27897-13.48515s-2.61339-5.36145-1.62147-8.59215c.84403-2.80108 3.51195 2.68131 3.51195 2.68131s4.49023 6.98366 7.15744 6.32636c2.66778-.65658.38902-7.77402 1.19295-9.86528.80466-2.09132 4.74561 5.36145 5.67044 8.53853.92478 3.17699 5.84421 9.03422 7.97563 10.88443 2.13075 1.84971 33.91227 23.60453 36.59309 23.40345 2.68144-.20105 21.99635-23.69876 21.99635-23.69876z" fill="#fff" stroke-width="1.34034"/><path d="m273.84376 240.51921a-8.4580925 8.4580925 0 0 0 3.02895-.50931c14.12813-5.36205 31.54072-33.85941 32.27728-35.0789a-.65680924.65680924 0 0 0 0-.55002-.67021346.67021346 0 0 0 -.36191-.40195l-20.82983-9.16869a-.68361773.68361773 0 0 0 -.79111.18807c-9.24871 11.32662-19.83787 23.20241-21.52728 23.47066-2.68068 0-33.40302-20.73617-36.19103-23.14938-2.15862-1.8897-6.91715-7.64025-7.77467-10.57554-.64375-2.23875-3.84734-9.30254-5.85785-9.38329a-1.0723422 1.0723422 0 0 0 -1.08573.80457-11.179172 11.179172 0 0 0 -.0682 4.15487c.18808 2.11788.44279 5.01321-.67019 5.29498-1.48766.34827-4.66474-3.31084-6.42068-6.04517-.68357-1.42127-2.10422-3.941-3.47172-3.8337-.40204 0-.93822.28115-1.23314 1.26006-1.05852 3.49842 1.54147 8.85978 1.66222 9.08802a-50.668129 50.668129 0 0 0 7.3455 13.59163c4.47729 5.89786 8.90044 5.18768 10.30807 4.75848 3.82006 3.78005 36.13779 36.08461 51.66012 36.08461zm33.7513-35.56175c-2.68069 4.34292-18.64474 29.1274-31.19156 33.87288-5.52231 2.0773-16.48691-3.36448-31.71441-15.76374-11.62113-9.46331-21.66095-19.70409-21.76825-19.81139a-.65680924.65680924 0 0 0 -.75107-.13382c-.18735.0782-4.51677 1.91682-9.15508-4.18252a-51.378563 51.378563 0 0 1 -7.18455-13.29703c0-.13386-2.50674-5.18701-1.60859-8.18954a-.76404306.76404306 0 0 1 .16095-.34898-10.817253 10.817253 0 0 1 2.10432 3.19061c.83106 1.34034 4.94656 7.41254 7.92188 6.7017 2.21215-.54923 1.91683-3.82006 1.66222-6.7017a-14.865317 14.865317 0 0 1 -.0682-3.40468c1.0993.83104 3.67278 5.5625 4.47743 8.31047.96479 3.32448 5.91115 9.22234 8.16298 11.20575 1.7559 1.54187 33.5105 23.47123 37.08943 23.47123 2.80172-.20105 17.25175-17.57334 22.14394-23.55143z" fill="#231f20" stroke-width="1.34034"/><path d="m287.74365 196.08416a-.67021346.67021346 0 0 0 .60291-.37541l10.4017-21.58093a-.66247518.66247518 0 0 0 -1.19295-.57651l-10.41454 21.58093a-.65680924.65680924 0 0 0 .30826.88477-.58978782.58978782 0 0 0 .29462.0682z" fill="#231f20" stroke-width="1.34034"/><path d="m308.57367 205.25229a-.67021346.67021346 0 0 0 .6036-.37492c.11917-.26818 12.94874-26.70125 15.53576-29.97208a-.67021346.67021346 0 0 0 -.1073-.93842-.65680924.65680924 0 0 0 -.93842.1073c-2.68068 3.39106-15.16021 29.12739-15.69671 30.22676a-.67021346.67021346 0 0 0 .30826.88477-.58978782.58978782 0 0 0 .29481.0682z" fill="#231f20" stroke-width="1.34034"/><path d="m248.12087 266.61739a-.67787829.67787829 0 0 0 .20096-1.34078c-15.62942-5.10696-39.03354-38.97924-39.27451-39.32775a-.67021346.67021346 0 0 0 -.92478-.16084-.65680924.65680924 0 0 0 -.17459.92487c.96505 1.40746 23.8997 34.58266 39.95832 39.83747z" fill="#fff" stroke-width="1.34034"/><path d="m252.7184 175.17354a-26.808529 26.808529 0 0 0 -5.36153-3.05623c-4.38367-1.93049-10.22788-1.46128-8.7666.42894 1.46128 1.88983 11.36652 6.00472 11.36652 6.00472s-.85749 4.5173 4.31655 6.5149" fill="#fff" stroke-width="1.34034"/><path d="m254.32699 185.73606a-.68098437.68098437 0 0 0 .24097-1.34044c-4.57051-1.75634-3.94095-5.60298-3.90022-5.76393a-.68361773.68361773 0 0 0 -.40266-.73746c-3.91375-1.62158-10.09336-4.5173-11.08482-5.79056a-.53617071.53617071 0 0 1 -.0973-.16095c.37529-.56287 4.41001-.85749 8.04252.73746a-28.215977 28.215977 0 0 1 5.10701 2.92186-.68361773.68361773 0 0 0 .93834 0-.65680924.65680924 0 0 0 0-.92495-26.473444 26.473444 0 0 0 -5.50921-3.20358c-3.63254-1.59495-8.51174-1.74226-9.65107-.29462a-1.3404289 1.3404289 0 0 0 .0973 1.74226c1.34047 1.80955 9.06132 5.13403 11.17913 6.03242a-6.7021346 6.7021346 0 0 0 4.78576 6.70172-.77744737.77744737 0 0 0 .25461.0782z" fill="#231f20" stroke-width="1.34034"/><path d="m308.45345 255.78672a-.68361773.68361773 0 0 0 .6429-.46921c7.52008-23.65873 43.71165-88.80344 44.10038-89.45997a-.67021346.67021346 0 0 0 -1.16615-.6438c-.37534.65718-36.63355 65.92218-44.23388 89.7017a-.67021346.67021346 0 0 0 .44215.83109-.53617071.53617071 0 0 0 .2146.0391z" fill="#d1d3d4" stroke-width="1.34034"/><path d="m-375.8363 283.26624h351.68707v8.726181h-351.68707z" fill="none" stroke-width="1.34034" transform="scale(-1 1)"/><path d="m24.162231 292.64814h351.674319a-.67021346.67021346 0 0 0 .67019-.67021v-8.71251a-.67021346.67021346 0 0 0 -.67019-.67017h-351.674319a-.67021346.67021346 0 0 0 -.67027.67017v8.71251a-.67021346.67021346 0 0 0 .67027.67021zm351.017509-1.34039h-350.360799v-7.38571h350.360799z" fill="none" stroke-width="1.34034"/><path d="m270.82754 68.797125a-.68361773.68361773 0 0 0 .52286-.24143-.67021346.67021346 0 0 0 -.0973-.93831l-30.10557-24.851444a-.67021346.67021346 0 0 0 -.93832 0-.67021346.67021346 0 0 0 .0973.938311l30.09218 24.945223a-.67021346.67021346 0 0 0 .4292.14765z" fill="#d1d3d4" stroke-width="1.34034"/><path d="m159.65232 84.882445a-.67021346.67021346 0 0 0 .42894-1.18015l-38.38974-32.169962a-.68361773.68361773 0 0 0 -.9518.08019-.68361773.68361773 0 0 0 .0782.9517l38.40355 32.170962a-.69702204.69702204 0 0 0 .42893.14736z" fill="#d1d3d4" stroke-width="1.34034"/><path d="m255.77463 104.8948a-.65680924.65680924 0 0 0 .50922-.24102-.68361773.68361773 0 0 0 -.0782-.95201l-23.7391-19.999475a-.67562711.67562711 0 1 0 -.87147 1.03268l23.75229 19.998875a-.65680924.65680924 0 0 0 .42894.16095z" fill="#d1d3d4" stroke-width="1.34034"/><path d="m101.35727 197.47822a-.69702204.69702204 0 0 0 .50931-.22817-.68361773.68361773 0 0 0 -.0682-.95141l-15.173049-13.23037a-.67021346.67021346 0 1 0 -.88469 1.00571l15.173329 13.24336a-.69702204.69702204 0 0 0 .44252.16088z" fill="#d1d3d4" stroke-width="1.34034"/><path d="m150.6716 151.64854a-.67021346.67021346 0 0 0 .4292-1.19296l-43.18896-35.93652a-.65680924.65680924 0 0 0 -.93791.0782-.68361773.68361773 0 0 0 .0782.95198l43.18865 35.93663a-.68361773.68361773 0 0 0 .42917.16093z" fill="#d1d3d4" stroke-width="1.34034"/></svg>