<svg xmlns="http://www.w3.org/2000/svg" viewBox="0 0 32 32" height="800" width="800">
    <defs>
        <clipPath id="a">
            <path d="M0 0h32v32H0z"/>
        </clipPath>
    </defs>
    <g data-name="Group 3166" clip-path="url(#a)">
        <g data-name="Group 3139">
            <g data-name="Group 3138">
                <g data-name="Group 3137">
                    <g data-name="Group 3136">
                        <g data-name="Group 3135">
                            <g data-name="Group 3134">
                                <g data-name="Group 3133">
                                    <g data-name="Group 3132">
                                        <g data-name="Group 3131">
                                            <g data-name="Group 3130">
                                                <g data-name="Group 3129">
                                                    <g data-name="Group 3128">
                                                        <g data-name="Group 3127">
                                                            <path style="fill:#fafafa;fill-opacity:1" fill="#344952" d="m234.64 115.693.728-.952-.846-.846.558-1.059-.979-.694.371-1.138-1.082-.52.17-1.186-1.151-.329-.034-1.2-1.188-.128-.233-1.173-1.2.072-.427-1.113-1.168.272-.607-1.025-1.107.465-.776-.911-1.008.647-.925-.766-.88.806-1.037-.6-.731.947-1.123-.415-.563 1.057-1.178-.219-.376 1.133-1.2-.017-.179 1.181-1.185.184.024 1.2-1.129.381.221 1.176-1.054.57.418 1.121-.94.738.6 1.03-.8.885.769.92-.638 1.006.908.775-.464 1.11 1.031.6-.272 1.165 1.122.425-.07 1.193 1.177.231.133 1.191 1.18.026-4 9.881a.5.5 0 0 0 .7.63l4.1-2.156 1.8 3.354a.5.5 0 0 0 .44.263h.027a.5.5 0 0 0 .437-.312l3.257-8.03 3.03 8.015a.5.5 0 0 0 .429.323h.039a.5.5 0 0 0 .435-.253l1.889-3.336 4.049 2.212a.518.518 0 0 0 .76-.44.5.5 0 0 0-.1-.3l-3.849-10.17 1.123-.08.082-1.192 1.167-.285-.127-1.191 1.1-.474-.322-1.152 1-.657-.517-1.082.879-.815Zm-14.162 18.52-1.533-2.853a.5.5 0 0 0-.674-.206l-3.328 1.751 3.193-7.878.9-.134.522 1.076 1.14-.373.7.974 1.057-.56.851.836.227-.175Zm12.949-1.232-3.3-1.8a.5.5 0 0 0-.675.192l-1.606 2.836-2.864-7.576.25.175.814-.884 1.082.509.654-1 1.152.317.421-.979h.021a.462.462 0 0 0 .366-.09l.561.056Zm-.739-16.585-.674.627.4.829-.766.5.247.882-.844.366.1.914-.888.216-.063.916-.918.066-.212.89-.912-.091-.362.842-.883-.243-.5.77-.832-.392-.622.676-.75-.526-.731.561-.656-.644-.807.427-.533-.745-.874.286-.4-.827-.907.135-.255-.883-.917-.021-.1-.91-.9-.178.054-.914-.86-.327.209-.9-.793-.464.353-.843-.7-.594.491-.774-.589-.7.62-.682-.464-.79.717-.563-.322-.861.807-.437-.169-.9.872-.295-.019-.916.907-.141.138-.908.917.014.289-.869.9.168.431-.81.865.319.559-.725.794.458.676-.62.709.586.767-.493.592.695.848-.356.465.787.9-.21.328.856.919-.056.18.9.911.1.026.915.881.252-.131.911.827.4-.284.872.75.532-.428.814.65.65-.557.728Z" data-name="Path 3994" transform="translate(-208 -104)"/>
                                                        </g>
                                                    </g>
                                                </g>
                                            </g>
                                        </g>
                                    </g>
                                </g>
                            </g>
                        </g>
                    </g>
                </g>
            </g>
        </g>
        <g data-name="Group 3152">
            <g data-name="Group 3151">
                <g data-name="Group 3150">
                    <g data-name="Group 3149">
                        <g data-name="Group 3148">
                            <g data-name="Group 3147">
                                <g data-name="Group 3146">
                                    <g data-name="Group 3145">
                                        <g data-name="Group 3144">
                                            <g data-name="Group 3143">
                                                <g data-name="Group 3142">
                                                    <g data-name="Group 3141">
                                                        <g data-name="Group 3140">
                                                            <path style="fill:#e8e8e8;fill-opacity:.69411767" fill="#344952" d="m231.179 114.684-.248-.249.164-.31a.5.5 0 0 0-.154-.641l-.287-.2.109-.334a.5.5 0 0 0-.26-.6l-.318-.152.05-.351a.5.5 0 0 0-.358-.552l-.338-.1-.01-.351a.5.5 0 0 0-.447-.483l-.348-.038-.069-.345a.492.492 0 0 0-.521-.4l-.352.022-.126-.327a.5.5 0 0 0-.58-.308l-.345.08-.178-.3a.5.5 0 0 0-.624-.206l-.327.137-.228-.267a.5.5 0 0 0-.65-.1l-.3.189-.273-.226a.5.5 0 0 0-.657.016l-.259.237-.305-.175a.5.5 0 0 0-.646.128l-.213.277-.332-.123a.5.5 0 0 0-.614.234l-.166.311-.348-.065a.5.5 0 0 0-.565.334l-.111.333-.352-.005h-.008a.5.5 0 0 0-.494.425l-.053.348-.349.054a.5.5 0 0 0-.423.5l.008.351-.333.112a.5.5 0 0 0-.331.566l.065.348-.311.169a.5.5 0 0 0-.231.614l.124.331-.276.217a.5.5 0 0 0-.123.646l.177.3-.236.261a.5.5 0 0 0-.014.656l.228.271-.189.3a.5.5 0 0 0 .1.649l.267.227-.136.328a.5.5 0 0 0 .209.624l.3.176-.079.343a.5.5 0 0 0 .309.581l.33.125-.02.349a.5.5 0 0 0 .4.521l.346.068.039.35a.5.5 0 0 0 .486.444l.352.008.1.34a.5.5 0 0 0 .554.355l.346-.051.154.316a.5.5 0 0 0 .605.257l.337-.109.205.286a.5.5 0 0 0 .641.15l.31-.164.251.247a.5.5 0 0 0 .655.039l.278-.214.288.2a.5.5 0 0 0 .655-.07l.24-.26.318.15a.5.5 0 0 0 .632-.18l.193-.3.339.094a.5.5 0 0 0 .593-.285l.138-.323.352.035a.5.5 0 0 0 .535-.382l.082-.34.35-.025a.5.5 0 0 0 .464-.465l.024-.352.343-.084a.5.5 0 0 0 .378-.538l-.037-.35.322-.139a.5.5 0 0 0 .283-.594l-.1-.339.295-.193a.5.5 0 0 0 .178-.634l-.152-.318.259-.241a.5.5 0 0 0 .067-.654l-.2-.287.214-.28a.5.5 0 0 0-.037-.65Zm-1.2 1.214.163.229-.208.192a.5.5 0 0 0-.111.582l.122.255-.235.154a.5.5 0 0 0-.208.553l.076.272-.26.112a.5.5 0 0 0-.3.512l.03.281-.274.066a.5.5 0 0 0-.38.453l-.019.282-.283.02a.5.5 0 0 0-.451.383l-.065.273-.281-.029a.509.509 0 0 0-.509.3l-.111.259-.272-.075a.5.5 0 0 0-.552.21l-.155.237-.256-.12a.5.5 0 0 0-.58.113l-.192.208-.23-.161a.5.5 0 0 0-.592.013l-.225.172-.2-.2a.5.5 0 0 0-.35-.142.506.506 0 0 0-.235.057l-.247.132-.164-.229a.5.5 0 0 0-.562-.184l-.269.088-.123-.254a.507.507 0 0 0-.524-.276l-.278.041-.079-.273a.5.5 0 0 0-.469-.36l-.281-.007-.031-.279a.5.5 0 0 0-.4-.436l-.278-.054.016-.28a.5.5 0 0 0-.321-.5l-.266-.1.064-.276a.5.5 0 0 0-.234-.545l-.242-.141.109-.262a.5.5 0 0 0-.138-.573l-.215-.183.152-.238a.5.5 0 0 0-.039-.589l-.182-.218.19-.21a.5.5 0 0 0 .061-.589l-.141-.241.22-.173a.5.5 0 0 0 .159-.568l-.1-.266.25-.135a.5.5 0 0 0 .253-.533l-.052-.278.268-.091a.5.5 0 0 0 .34-.483l-.006-.282.28-.043a.5.5 0 0 0 .417-.42l.043-.279h.282a.568.568 0 0 0 .482-.341l.088-.267.28.052a.506.506 0 0 0 .533-.257l.132-.249.266.1a.5.5 0 0 0 .57-.164l.171-.221.244.14a.5.5 0 0 0 .588-.065l.208-.191.219.182a.5.5 0 0 0 .588.036l.237-.151.182.213a.5.5 0 0 0 .574.136l.262-.109.143.24a.5.5 0 0 0 .544.233l.278-.066.1.264a.5.5 0 0 0 .5.319l.283-.016.056.277a.5.5 0 0 0 .437.4l.278.03.008.281a.5.5 0 0 0 .363.467l.272.077-.041.281a.5.5 0 0 0 .279.522l.254.122-.087.267a.5.5 0 0 0 .186.563l.231.163-.132.249a.5.5 0 0 0 .089.587l.2.2-.172.225a.5.5 0 0 0-.012.599Z" data-name="Path 3995" transform="translate(-208 -104)"/>
                                                        </g>
                                                    </g>
                                                </g>
                                            </g>
                                        </g>
                                    </g>
                                </g>
                            </g>
                        </g>
                    </g>
                </g>
            </g>
        </g>
    </g>
    <g style="font-size:10.1998px;line-height:20.25;font-family:BentonSans;-inkscape-font-specification:BentonSans;text-align:center;letter-spacing:0;word-spacing:0;writing-mode:lr-tb;text-anchor:middle;fill:#fafafa;fill-opacity:1;stroke-width:.19125" aria-label="3">
        <path style="fill:#fafafa;fill-opacity:1;stroke-width:.19125" d="M15.82 15.406c1.479 0 2.53-.827 2.53-2.244 0-1.05-.541-1.653-1.449-1.918.775-.235 1.275-.877 1.275-1.764 0-1.133-.847-1.898-2.213-1.898-1.102 0-1.918.551-2.469 1.357l1.03.694c.317-.47.776-.796 1.306-.796.612 0 .847.357.847.816 0 .673-.286 1.081-1.337 1.081h-.438v1.153h.347c1.06 0 1.601.367 1.601 1.244 0 .592-.398 1.06-1.102 1.06-.581 0-1.05-.336-1.336-1.03l-1.214.541c.429 1.02 1.194 1.704 2.622 1.704z"/>
    </g>
</svg>
